<svg xmlns="http://www.w3.org/2000/svg" viewBox="0 0 245 240">
  <path fill="currentColor" d="M104.4 104.9c-5.7 0-10.2 5-10.2 11.1s4.6 11.1 10.2 11.1c5.7 0 10.2-5 10.2-11.1c.1-6.1-4.5-11.1-10.2-11.1zm36.2 0c-5.7 0-10.2 5-10.2 11.1s4.6 11.1 10.2 11.1c5.7 0 10.2-5 10.2-11.1s-4.5-11.1-10.2-11.1z"></path>
  <path fill="currentColor" d="M189.5 20h-134C38.6 20 25 33.6 25 50.1v139.5c0 16.5 13.6 30.1 30.5 30.1h113.4l-5.3-18.7l12.8 11.9l12.1 11.1l21.4 18.9V50.1c-.1-16.5-13.7-30.1-30.4-30.1zm-43.7 135s-4.1-4.9-7.5-9.2c14.9-4.2 20.6-13.5 20.6-13.5c-4.7 3.1-9.2 5.3-13.2 6.8c-5.7 2.4-11.2 4-16.6 4.9c-11 2.1-21.1 1.5-29.7-.1c-6.5-1.2-12-3-16.7-4.9c-2.6-1-5.4-2.2-8.2-3.8c-.3-.2-.6-.3-.9-.5c-.2-.1-.3-.2-.4-.2c-.2-.1-.3-.2-.5-.3c-.8-.5-1.2-.8-1.2-.8s5.5 9.1 20.1 13.4c-3.4 4.3-7.6 9.4-7.6 9.4c-25.1-.8-34.7-17.2-34.7-17.2c0-36.4 16.3-65.9 16.3-65.9c16.3-12.2 31.8-11.8 31.8-11.8l1.1 1.3c-20.4 5.9-29.7 14.8-29.7 14.8s2.5-1.4 6.7-3.3c12.1-5.3 21.7-6.8 25.7-7.1c.7-.1 1.3-.2 2-.2c7.2-.9 15.3-1.1 23.7-.2c11.2 1.3 23.2 4.6 35.5 11.3c0 0-8.9-8.5-28-14.4l1.6-1.8s15.5-.4 31.8 11.8c0 0 16.3 29.5 16.3 65.9c0 0-9.7 16.4-34.8 17.2z"></path>
</svg>
